# xmcd
#
# Track frame offsets:
#	150
#	13718
#	32845
#	46050
#	64477
#	83081
#	97442
#	114792
#	128346
#
# Disc length: 1954 seconds
# Revision: 7
# Processed by: cddbd v1.5.2PL0 Copyright (c) Steve Scherf et al.
# Submitted via: dBpowerAMP V12.0
#
DISCID=6d07a009
DTITLE=Chris Stapleton - From a Room: Volume 1
DYEAR=2017
DGENRE=Country
TTITLE0=Broken Halos
TTITLE1=Last Thing I Needed, First Thing This Morning
TTITLE2=Second One to Know
TTITLE3=Up to No Good Livin'
TTITLE4=Either Way
TTITLE5=I Was Wrong
TTITLE6=Without Your Love
TTITLE7=Them Stems
TTITLE8=Death Row
EXTD=
EXTT0=
EXTT1=
EXTT2=
EXTT3=
EXTT4=
EXTT5=
EXTT6=
EXTT7=
EXTT8=
PLAYORDER=
